<?xml version="1.0" encoding="utf-8"?>
<!-- Generator: Adobe Illustrator 25.0.0, SVG Export Plug-In . SVG Version: 6.00 Build 0)  -->
<svg version="1.1" id="图层_1" xmlns="http://www.w3.org/2000/svg" xmlns:xlink="http://www.w3.org/1999/xlink" x="0px" y="0px"
	 viewBox="0 0 60.99 60.99" style="enable-background:new 0 0 60.99 60.99;" xml:space="preserve">
<style type="text/css">
	.st0{fill-rule:evenodd;clip-rule:evenodd;fill:#329292;}
	.st1{fill:#41556E;}
</style>
<g>
	<g>
		<g>
			<path class="st0" d="M33.75,12.95c1.31,8.42,7.96,15.07,16.38,16.38V12.95H33.75L33.75,12.95z"/>
			<path class="st0" d="M14.18,33v16.38h16.38C29.24,40.97,22.59,34.32,14.18,33z"/>
			<path class="st0" d="M14.18,29.33c8.42-1.31,15.07-7.96,16.37-16.38H14.18V29.33L14.18,29.33z"/>
			<path class="st0" d="M33.75,49.38h16.38V33.01C41.71,34.32,35.06,40.97,33.75,49.38z"/>
		</g>
		<g>
			<path class="st1" d="M5.97,32.97l-0.03-0.4h-0.4H4.1l0.03,0.46c0.95,14.02,12.31,25.24,26.33,26.15l0.45,0.03v-1.84l-0.4-0.03
				C17.47,56.47,6.88,46,5.97,32.97z"/>
			<path class="st1" d="M58.33,32.97c-0.9,13.04-11.52,23.53-24.58,24.38l-0.4,0.03v0.4v1.44l0.46-0.03
				c14.04-0.89,25.42-12.13,26.36-26.16l0.03-0.46h-1.84L58.33,32.97z"/>
			<path class="st1" d="M5.94,29.69l0.03-0.4c0.9-13.03,11.5-23.51,24.55-24.37l0.4-0.03V3.06l-0.46,0.03
				C16.45,3.99,5.08,15.22,4.14,29.24L4.1,29.69h0.46H5.94z"/>
			<path class="st1" d="M58.33,29.29l0.03,0.4h0.4h1.44l-0.03-0.46C59.22,15.21,47.84,3.97,33.81,3.08l-0.45-0.03v1.84l0.4,0.03
				C46.81,5.76,57.43,16.25,58.33,29.29z"/>
		</g>
	</g>
</g>
<g>
	<path class="st1" d="M39.92,38.44l-5.98,10.94h-3.09l-5.88-10.94h3.02l4.11,8.3c0.13,0.26,0.23,0.57,0.3,0.92h0.05
		c0.05-0.29,0.17-0.6,0.34-0.94l4.2-8.29H39.92z"/>
</g>
<g>
	<path class="st1" d="M24.81,23.9l5.98-10.94h3.09l5.88,10.94h-3.02l-4.11-8.3c-0.13-0.26-0.23-0.57-0.3-0.92h-0.05
		c-0.05,0.29-0.17,0.6-0.34,0.94l-4.2,8.29H24.81z"/>
</g>
<g>
	<path class="st1" d="M39.19,23.33l10.94,5.98v3.09l-10.94,5.88v-3.02l8.3-4.11c0.26-0.13,0.57-0.23,0.92-0.3V30.8
		c-0.29-0.05-0.6-0.17-0.94-0.34l-8.29-4.21V23.33z"/>
</g>
<g>
	<path class="st1" d="M25.12,38.44l-10.94-5.98v-3.09l10.94-5.88v3.02l-8.3,4.11c-0.26,0.13-0.57,0.23-0.92,0.3v0.05
		c0.29,0.05,0.6,0.17,0.94,0.34l8.29,4.2V38.44z"/>
</g>
<g>
</g>
</svg>
